<svg width="1080" height="1920" viewBox="0 0 1080 1920" fill="none" xmlns="http://www.w3.org/2000/svg">
  <rect width="1080" height="1920" fill="#07111F"/>
  <circle cx="130" cy="160" r="380" fill="#667EEA" opacity="0.45"/>
  <circle cx="950" cy="250" r="320" fill="#2ECFB0" opacity="0.28"/>
  <circle cx="520" cy="1720" r="520" fill="#5AA9D6" opacity="0.2"/>
  <g opacity="0.1"><path d="M0 240H1080M0 480H1080M0 720H1080M0 960H1080M0 1200H1080M0 1440H1080M0 1680H1080" stroke="white"/><path d="M180 0V1920M360 0V1920M540 0V1920M720 0V1920M900 0V1920" stroke="white"/></g>
  <rect x="104" y="132" width="872" height="1656" rx="56" fill="white" opacity="0.07" stroke="white" stroke-opacity="0.14"/>
  <image href="../harness-local-mark.svg" x="390" y="220" width="300" height="300"/>
  <text x="540" y="680" text-anchor="middle" fill="#ECF7FF" font-family="Inter, Arial, sans-serif" font-size="92" font-weight="900" letter-spacing="-5">Harness</text>
  <text x="540" y="784" text-anchor="middle" fill="#ECF7FF" font-family="Inter, Arial, sans-serif" font-size="92" font-weight="900" letter-spacing="-5">Local</text>
  <text x="540" y="888" text-anchor="middle" fill="#7DD3FC" font-family="Inter, Arial, sans-serif" font-size="42" font-weight="800">本地 AI 项目体检工具</text>
  <text x="540" y="1028" text-anchor="middle" fill="#C7D7EA" font-family="Inter, Arial, sans-serif" font-size="48" font-weight="750">不默认上传项目</text>
  <text x="540" y="1102" text-anchor="middle" fill="#C7D7EA" font-family="Inter, Arial, sans-serif" font-size="48" font-weight="750">不读取凭证文件</text>
  <text x="540" y="1176" text-anchor="middle" fill="#C7D7EA" font-family="Inter, Arial, sans-serif" font-size="48" font-weight="750">默认 127.0.0.1</text>
  <rect x="250" y="1300" width="580" height="96" rx="30" fill="#2ECFB0"/>
  <text x="540" y="1363" text-anchor="middle" fill="#03111D" font-family="Inter, Arial, sans-serif" font-size="40" font-weight="900">本地 AI 项目体检</text>
  <text x="540" y="1530" text-anchor="middle" fill="#9FB3CC" font-family="Inter, Arial, sans-serif" font-size="32">GitHub: ruiflow-team/harness-local</text>
  <text x="540" y="1590" text-anchor="middle" fill="#9FB3CC" font-family="Inter, Arial, sans-serif" font-size="32">v0.24.1 Beta</text>
</svg>
